<mxfile host="app.diagrams.net" modified="2023-12-27T07:24:30.699Z" agent="Mozilla/5.0 (Windows NT 10.0; Win64; x64) AppleWebKit/537.36 (KHTML, like Gecko) Chrome/120.0.0.0 Safari/537.36" etag="DjgwXY1fB4TzvLNkcYfq" version="22.1.12" type="device">
  <diagram name="Page-1" id="BequdNRS2IZ72DuQcJNt">
    <mxGraphModel dx="2924" dy="1098" grid="1" gridSize="10" guides="1" tooltips="1" connect="1" arrows="1" fold="1" page="1" pageScale="1" pageWidth="850" pageHeight="1100" math="0" shadow="0">
      <root>
        <mxCell id="0" />
        <mxCell id="1" parent="0" />
        <mxCell id="VtN16QBmUIwUdD-wC699-1" value="Customer" style="rounded=0;whiteSpace=wrap;html=1;" vertex="1" parent="1">
          <mxGeometry x="-20" y="180" width="120" height="60" as="geometry" />
        </mxCell>
        <mxCell id="VtN16QBmUIwUdD-wC699-3" value="Load Balancer" style="rounded=1;whiteSpace=wrap;html=1;" vertex="1" parent="1">
          <mxGeometry x="250" y="70" width="120" height="530" as="geometry" />
        </mxCell>
        <mxCell id="VtN16QBmUIwUdD-wC699-4" value="API Gateway" style="rounded=0;whiteSpace=wrap;html=1;" vertex="1" parent="1">
          <mxGeometry x="390" y="280" width="120" height="60" as="geometry" />
        </mxCell>
        <mxCell id="VtN16QBmUIwUdD-wC699-5" value="Search Service" style="rounded=1;whiteSpace=wrap;html=1;" vertex="1" parent="1">
          <mxGeometry x="620" y="330" width="120" height="60" as="geometry" />
        </mxCell>
        <mxCell id="VtN16QBmUIwUdD-wC699-20" style="edgeStyle=orthogonalEdgeStyle;rounded=0;orthogonalLoop=1;jettySize=auto;html=1;" edge="1" parent="1" source="VtN16QBmUIwUdD-wC699-6" target="VtN16QBmUIwUdD-wC699-7">
          <mxGeometry relative="1" as="geometry" />
        </mxCell>
        <mxCell id="VtN16QBmUIwUdD-wC699-6" value="Order Service" style="rounded=1;whiteSpace=wrap;html=1;" vertex="1" parent="1">
          <mxGeometry x="650" y="430" width="120" height="60" as="geometry" />
        </mxCell>
        <mxCell id="VtN16QBmUIwUdD-wC699-7" value="Kafka Queue" style="rounded=1;whiteSpace=wrap;html=1;" vertex="1" parent="1">
          <mxGeometry x="830" y="350" width="120" height="600" as="geometry" />
        </mxCell>
        <mxCell id="VtN16QBmUIwUdD-wC699-8" value="Notification Service" style="rounded=1;whiteSpace=wrap;html=1;" vertex="1" parent="1">
          <mxGeometry x="650" y="860" width="120" height="60" as="geometry" />
        </mxCell>
        <mxCell id="VtN16QBmUIwUdD-wC699-18" style="edgeStyle=orthogonalEdgeStyle;rounded=0;orthogonalLoop=1;jettySize=auto;html=1;" edge="1" parent="1" source="VtN16QBmUIwUdD-wC699-9" target="VtN16QBmUIwUdD-wC699-7">
          <mxGeometry relative="1" as="geometry" />
        </mxCell>
        <mxCell id="VtN16QBmUIwUdD-wC699-9" value="Restaurant Service&amp;nbsp;" style="rounded=1;whiteSpace=wrap;html=1;" vertex="1" parent="1">
          <mxGeometry x="650" y="540" width="120" height="60" as="geometry" />
        </mxCell>
        <mxCell id="VtN16QBmUIwUdD-wC699-15" style="edgeStyle=orthogonalEdgeStyle;rounded=0;orthogonalLoop=1;jettySize=auto;html=1;" edge="1" parent="1" source="VtN16QBmUIwUdD-wC699-10" target="VtN16QBmUIwUdD-wC699-7">
          <mxGeometry relative="1" as="geometry" />
        </mxCell>
        <mxCell id="VtN16QBmUIwUdD-wC699-10" value="Delivery Service" style="rounded=1;whiteSpace=wrap;html=1;" vertex="1" parent="1">
          <mxGeometry x="645" y="660" width="130" height="60" as="geometry" />
        </mxCell>
        <mxCell id="VtN16QBmUIwUdD-wC699-16" value="Restaurant" style="rounded=0;whiteSpace=wrap;html=1;" vertex="1" parent="1">
          <mxGeometry x="-20" y="310" width="120" height="60" as="geometry" />
        </mxCell>
        <mxCell id="VtN16QBmUIwUdD-wC699-29" style="edgeStyle=orthogonalEdgeStyle;rounded=0;orthogonalLoop=1;jettySize=auto;html=1;entryX=0;entryY=0.5;entryDx=0;entryDy=0;" edge="1" parent="1" source="VtN16QBmUIwUdD-wC699-17" target="VtN16QBmUIwUdD-wC699-28">
          <mxGeometry relative="1" as="geometry" />
        </mxCell>
        <mxCell id="VtN16QBmUIwUdD-wC699-17" value="Delivery Agent" style="rounded=0;whiteSpace=wrap;html=1;" vertex="1" parent="1">
          <mxGeometry x="-20" y="480" width="120" height="60" as="geometry" />
        </mxCell>
        <mxCell id="VtN16QBmUIwUdD-wC699-19" style="edgeStyle=orthogonalEdgeStyle;rounded=0;orthogonalLoop=1;jettySize=auto;html=1;entryX=-0.017;entryY=0.8;entryDx=0;entryDy=0;entryPerimeter=0;" edge="1" parent="1" source="VtN16QBmUIwUdD-wC699-8" target="VtN16QBmUIwUdD-wC699-7">
          <mxGeometry relative="1" as="geometry" />
        </mxCell>
        <mxCell id="VtN16QBmUIwUdD-wC699-22" style="edgeStyle=orthogonalEdgeStyle;rounded=0;orthogonalLoop=1;jettySize=auto;html=1;" edge="1" parent="1" source="VtN16QBmUIwUdD-wC699-21" target="VtN16QBmUIwUdD-wC699-9">
          <mxGeometry relative="1" as="geometry" />
        </mxCell>
        <mxCell id="VtN16QBmUIwUdD-wC699-23" style="edgeStyle=orthogonalEdgeStyle;rounded=0;orthogonalLoop=1;jettySize=auto;html=1;entryX=0;entryY=0.5;entryDx=0;entryDy=0;" edge="1" parent="1" source="VtN16QBmUIwUdD-wC699-21" target="VtN16QBmUIwUdD-wC699-5">
          <mxGeometry relative="1" as="geometry" />
        </mxCell>
        <mxCell id="VtN16QBmUIwUdD-wC699-21" value="ES/Mongo DB" style="ellipse;whiteSpace=wrap;html=1;aspect=fixed;" vertex="1" parent="1">
          <mxGeometry x="445" y="530" width="80" height="80" as="geometry" />
        </mxCell>
        <mxCell id="VtN16QBmUIwUdD-wC699-24" value="MySQL for Users" style="ellipse;whiteSpace=wrap;html=1;" vertex="1" parent="1">
          <mxGeometry x="690" y="90" width="120" height="80" as="geometry" />
        </mxCell>
        <mxCell id="VtN16QBmUIwUdD-wC699-26" style="edgeStyle=orthogonalEdgeStyle;rounded=0;orthogonalLoop=1;jettySize=auto;html=1;" edge="1" parent="1" source="VtN16QBmUIwUdD-wC699-25" target="VtN16QBmUIwUdD-wC699-24">
          <mxGeometry relative="1" as="geometry" />
        </mxCell>
        <mxCell id="VtN16QBmUIwUdD-wC699-27" style="edgeStyle=orthogonalEdgeStyle;rounded=0;orthogonalLoop=1;jettySize=auto;html=1;" edge="1" parent="1" source="VtN16QBmUIwUdD-wC699-25" target="VtN16QBmUIwUdD-wC699-5">
          <mxGeometry relative="1" as="geometry" />
        </mxCell>
        <mxCell id="VtN16QBmUIwUdD-wC699-25" value="User Service" style="rounded=1;whiteSpace=wrap;html=1;" vertex="1" parent="1">
          <mxGeometry x="540" y="170" width="120" height="60" as="geometry" />
        </mxCell>
        <mxCell id="VtN16QBmUIwUdD-wC699-30" style="edgeStyle=orthogonalEdgeStyle;rounded=0;orthogonalLoop=1;jettySize=auto;html=1;entryX=0;entryY=0.5;entryDx=0;entryDy=0;" edge="1" parent="1" source="VtN16QBmUIwUdD-wC699-28" target="VtN16QBmUIwUdD-wC699-10">
          <mxGeometry relative="1" as="geometry" />
        </mxCell>
        <mxCell id="VtN16QBmUIwUdD-wC699-28" value="Web socket Manager" style="rounded=1;whiteSpace=wrap;html=1;" vertex="1" parent="1">
          <mxGeometry x="365" y="720" width="120" height="60" as="geometry" />
        </mxCell>
        <mxCell id="VtN16QBmUIwUdD-wC699-31" value="MySQL for Order" style="ellipse;whiteSpace=wrap;html=1;" vertex="1" parent="1">
          <mxGeometry x="1000" y="250" width="120" height="80" as="geometry" />
        </mxCell>
        <mxCell id="VtN16QBmUIwUdD-wC699-32" style="edgeStyle=orthogonalEdgeStyle;rounded=0;orthogonalLoop=1;jettySize=auto;html=1;entryX=0.875;entryY=0.033;entryDx=0;entryDy=0;entryPerimeter=0;" edge="1" parent="1" source="VtN16QBmUIwUdD-wC699-31" target="VtN16QBmUIwUdD-wC699-6">
          <mxGeometry relative="1" as="geometry" />
        </mxCell>
        <mxCell id="VtN16QBmUIwUdD-wC699-34" style="edgeStyle=orthogonalEdgeStyle;rounded=0;orthogonalLoop=1;jettySize=auto;html=1;" edge="1" parent="1" source="VtN16QBmUIwUdD-wC699-33" target="VtN16QBmUIwUdD-wC699-10">
          <mxGeometry relative="1" as="geometry" />
        </mxCell>
        <mxCell id="VtN16QBmUIwUdD-wC699-33" value="MySQL for Delivery Agents" style="ellipse;whiteSpace=wrap;html=1;" vertex="1" parent="1">
          <mxGeometry x="460" y="800" width="120" height="80" as="geometry" />
        </mxCell>
        <mxCell id="VtN16QBmUIwUdD-wC699-35" value="Analytic Service" style="rounded=1;whiteSpace=wrap;html=1;" vertex="1" parent="1">
          <mxGeometry x="1060" y="420" width="100" height="60" as="geometry" />
        </mxCell>
        <mxCell id="VtN16QBmUIwUdD-wC699-36" style="edgeStyle=orthogonalEdgeStyle;rounded=0;orthogonalLoop=1;jettySize=auto;html=1;entryX=1.033;entryY=0.165;entryDx=0;entryDy=0;entryPerimeter=0;" edge="1" parent="1" source="VtN16QBmUIwUdD-wC699-35" target="VtN16QBmUIwUdD-wC699-7">
          <mxGeometry relative="1" as="geometry" />
        </mxCell>
        <mxCell id="VtN16QBmUIwUdD-wC699-38" style="edgeStyle=orthogonalEdgeStyle;rounded=0;orthogonalLoop=1;jettySize=auto;html=1;" edge="1" parent="1" source="VtN16QBmUIwUdD-wC699-37" target="VtN16QBmUIwUdD-wC699-35">
          <mxGeometry relative="1" as="geometry" />
        </mxCell>
        <mxCell id="VtN16QBmUIwUdD-wC699-37" value="Cassandra cluster" style="ellipse;whiteSpace=wrap;html=1;" vertex="1" parent="1">
          <mxGeometry x="1300" y="410" width="120" height="80" as="geometry" />
        </mxCell>
      </root>
    </mxGraphModel>
  </diagram>
</mxfile>
